<svg xmlns="http://www.w3.org/2000/svg" viewBox="0 0 24 24" role="img" aria-label="Настройки" width="24" height="24">
  <g fill="none" stroke="currentColor" stroke-width="2" stroke-linecap="round" stroke-linejoin="round">
    <circle cx="12" cy="12" r="3"/>
    <path d="M19.4 15a7.82 7.82 0 0 0 .1-2l1.9-1.1l-2-3.5l-2.2.5a7.7 7.7 0 0 0-1.7-1l-.3-2.3H10l-.3 2.3a7.7 7.7 0 0 0-1.7 1l-2.2-.5L3.8 12l1.9 1.1a7.82 7.82 0 0 0 .1 2L3.8 16.2l2 3.5l2.2-.5a7.7 7.7 0 0 0 1.7 1l.3 2.3h4l.3-2.3a7.7 7.7 0 0 0 1.7-1l2.2.5l2-3.5z"/>
  </g>
</svg>